<mxfile host="app.diagrams.net" modified="2024-09-17T06:02:34.832Z" agent="Mozilla/5.0 (Windows NT 10.0; Win64; x64) AppleWebKit/537.36 (KHTML, like Gecko) Chrome/128.0.0.0 Safari/537.36" version="24.4.13" etag="A36Rn8h-1uKDDU1tcSpp" type="github">
  <diagram name="Page-1" id="VWCOT1s2UIXs_mF2nwTO">
    <mxGraphModel>
      <root>
        <mxCell id="0" />
        <mxCell id="1" parent="0" />
      </root>
    </mxGraphModel>
  </diagram>
</mxfile>
